<svg width="18" height="19" viewBox="0 0 18 19" fill="none" xmlns="http://www.w3.org/2000/svg">
<path d="M15 2.75H3C2.58579 2.75 2.25 3.08579 2.25 3.5V7.25C2.25 7.66421 2.58579 8 3 8H15C15.4142 8 15.75 7.66421 15.75 7.25V3.5C15.75 3.08579 15.4142 2.75 15 2.75Z" stroke="white" stroke-width="2" stroke-linecap="round" stroke-linejoin="round"/>
<path d="M6.75 11H3C2.58579 11 2.25 11.3358 2.25 11.75V15.5C2.25 15.9142 2.58579 16.25 3 16.25H6.75C7.16421 16.25 7.5 15.9142 7.5 15.5V11.75C7.5 11.3358 7.16421 11 6.75 11Z" stroke="white" stroke-width="2" stroke-linecap="round" stroke-linejoin="round"/>
<path d="M15 11H11.25C10.8358 11 10.5 11.3358 10.5 11.75V15.5C10.5 15.9142 10.8358 16.25 11.25 16.25H15C15.4142 16.25 15.75 15.9142 15.75 15.5V11.75C15.75 11.3358 15.4142 11 15 11Z" stroke="white" stroke-width="2" stroke-linecap="round" stroke-linejoin="round"/>
</svg>
