<svg width="24" height="21" viewBox="0 0 24 21" fill="none" xmlns="http://www.w3.org/2000/svg">
<path d="M21.7404 7.7523C21.97 7.58833 22.1855 7.40093 22.3823 7.20416C23.7784 5.80337 24.3078 3.75605 23.7549 1.85397C23.5957 1.30115 23.1693 0.874818 22.6165 0.715531C20.7144 0.162709 18.6671 0.692106 17.2663 2.08822C16.7088 2.64572 16.2825 3.32035 16.0108 4.0512C14.7271 3.63893 13.3685 3.41874 11.977 3.41874C10.5997 3.41874 9.25977 3.63424 7.98547 4.03715C7.71374 3.3063 7.28741 2.64104 6.73459 2.08822C5.33848 0.692106 3.28648 0.162709 1.38908 0.715531C0.83626 0.874818 0.409932 1.30115 0.250644 1.85397C-0.302178 3.75605 0.227219 5.80337 1.62333 7.20416C1.81541 7.39624 2.02155 7.56959 2.23706 7.73356C1.54837 8.48783 0.944014 9.33112 0.442726 10.2494C-0.147575 11.3222 -0.147575 12.6012 0.442726 13.6694C0.929959 14.5548 1.51089 15.37 2.16678 16.1055C3.61443 17.7312 5.42749 18.9587 7.47949 19.7082C7.48418 19.7082 7.48886 19.7129 7.49355 19.7129C7.57319 19.741 7.65284 19.7691 7.73248 19.7973C7.77464 19.8113 7.81681 19.8254 7.85897 19.8394C7.90582 19.8535 7.95267 19.8722 8.00421 19.8863C8.0698 19.905 8.13539 19.9284 8.20566 19.9472C8.22908 19.9519 8.25251 19.9612 8.27593 19.9659C8.35089 19.9893 8.43054 20.0081 8.50549 20.0315C8.51486 20.0362 8.52423 20.0362 8.5336 20.0409C8.61793 20.0643 8.70226 20.0877 8.79128 20.1065C8.80533 20.1112 8.8147 20.1111 8.82876 20.1158C9.01147 20.1627 9.19418 20.2002 9.37689 20.2376C9.38158 20.2376 9.38626 20.2376 9.39095 20.2423C9.57366 20.2798 9.75637 20.3126 9.93908 20.3407H9.94377C10.1218 20.3688 10.2998 20.3922 10.4779 20.411C10.4825 20.411 10.4872 20.411 10.4872 20.411C10.5762 20.4204 10.6606 20.4297 10.7496 20.4391C10.7636 20.4391 10.773 20.4438 10.7871 20.4438C10.7871 20.4438 10.7871 20.4438 10.7917 20.4438C10.8714 20.4531 10.9557 20.4578 11.0354 20.4625C11.0447 20.4625 11.0494 20.4625 11.0588 20.4625C11.1009 20.4672 11.1431 20.4672 11.1853 20.4719C11.2321 20.4766 11.2743 20.4766 11.3211 20.4813C11.3399 20.4813 11.3633 20.4813 11.382 20.4859C11.4102 20.4859 11.4383 20.4859 11.4664 20.4906C11.5179 20.4906 11.5694 20.4953 11.6163 20.4953C11.6257 20.4953 11.635 20.4953 11.6444 20.4953C11.6678 20.4953 11.6912 20.4953 11.7147 20.4953C11.799 20.4953 11.888 20.5 11.9723 20.5C12.0567 20.5 12.1457 20.5 12.23 20.4953C12.2534 20.4953 12.2769 20.4953 12.3003 20.4953C12.3097 20.4953 12.319 20.4953 12.3284 20.4953C12.3799 20.4953 12.4315 20.4906 12.4783 20.4906C12.5064 20.4906 12.5345 20.4906 12.5626 20.4859C12.5626 20.4859 12.5626 20.4859 12.5673 20.4859C12.5814 20.4859 12.5954 20.4859 12.6095 20.4813C12.6423 20.4813 12.6798 20.4766 12.7126 20.4766C12.7688 20.4719 12.8297 20.4719 12.8859 20.4672C12.8953 20.4672 12.9 20.4672 12.9093 20.4672C12.989 20.4625 13.0733 20.4531 13.1529 20.4485C13.1529 20.4485 13.1529 20.4485 13.1576 20.4485C13.1717 20.4485 13.1811 20.4438 13.1951 20.4438C13.2841 20.4344 13.3685 20.425 13.4575 20.4157C13.4622 20.4157 13.4668 20.4157 13.4715 20.4157C13.6496 20.3969 13.8276 20.3735 14.0056 20.3454C14.0103 20.3454 14.015 20.3454 14.0197 20.3454C14.2024 20.3173 14.3804 20.2845 14.5584 20.2517C14.5631 20.2517 14.5678 20.2517 14.5725 20.247C14.7552 20.2095 14.9379 20.1674 15.1206 20.1252C15.13 20.1205 15.144 20.1205 15.1534 20.1158C15.2377 20.0924 15.3268 20.0737 15.4111 20.0502C15.4205 20.0502 15.4298 20.0456 15.4345 20.0409C15.5142 20.0175 15.5891 19.9987 15.6688 19.9753C15.6875 19.9706 15.7062 19.9659 15.725 19.9565C15.7952 19.9378 15.8655 19.9144 15.9358 19.891C15.978 19.8769 16.0201 19.8628 16.0623 19.8488C16.1091 19.8347 16.1607 19.816 16.2075 19.8019C16.2778 19.7785 16.3481 19.7551 16.4183 19.727C16.4277 19.7223 16.4371 19.7176 16.4511 19.7176C16.4558 19.7176 16.4605 19.7129 16.4652 19.7129C18.5266 18.9633 20.3396 17.7312 21.792 16.1008C21.8107 16.0774 21.8341 16.054 21.8529 16.0353C21.8529 16.0353 21.8529 16.0353 21.8529 16.0306C22.4806 15.3185 23.0335 14.5314 23.5066 13.6787C24.0969 12.6059 24.0969 11.3269 23.5066 10.2587C23.0194 9.3358 22.4197 8.50189 21.7404 7.7523ZM17.9316 2.75348C19.0888 1.5963 20.7847 1.1606 22.3588 1.61972C22.5978 1.69 22.7899 1.88208 22.8601 2.12101C23.3146 3.69515 22.8836 5.39109 21.7264 6.54827C21.539 6.73567 21.3328 6.90901 21.1126 7.06361C20.9159 6.87622 20.7144 6.6935 20.5036 6.52016C20.7566 6.38898 20.9862 6.22033 21.1923 6.01887C21.9044 5.30676 22.1714 4.26202 21.8903 3.29693C21.792 2.95961 21.5296 2.69726 21.1923 2.59887C20.2225 2.31778 19.1825 2.58482 18.4703 3.29693C18.0768 3.69046 17.8191 4.18707 17.7114 4.71646C17.4443 4.58997 17.1773 4.47285 16.9056 4.36041C17.1258 3.75605 17.4771 3.20791 17.9316 2.75348ZM19.1262 3.94813C19.5947 3.47964 20.2834 3.30161 20.9252 3.48901C20.9534 3.49838 20.9768 3.5218 20.9862 3.54991C21.1736 4.18707 20.9955 4.88044 20.527 5.34893C20.2694 5.6066 19.9461 5.77994 19.59 5.84553C19.2668 5.61597 18.9388 5.40515 18.5968 5.20838C18.6015 4.7352 18.7936 4.28545 19.1262 3.94813ZM4.37807 5.83616C4.03607 5.7612 3.72686 5.59723 3.47856 5.34424C3.01007 4.87575 2.83204 4.18707 3.01944 3.54523C3.02881 3.51712 3.05223 3.4937 3.08034 3.48433C3.71749 3.29693 4.41086 3.47496 4.87936 3.94345C5.2073 4.27139 5.3947 4.71178 5.40875 5.1709C5.05738 5.38172 4.7107 5.60191 4.37807 5.83616ZM1.15015 2.11633C1.22042 1.87739 1.41251 1.68531 1.65144 1.61504C2.06371 1.49323 2.48536 1.43701 2.90232 1.43701C4.07823 1.43701 5.22136 1.89613 6.07402 2.74879C6.52845 3.20323 6.87982 3.75137 7.1047 4.35104C6.83297 4.45879 6.56125 4.57591 6.29889 4.70709C6.19582 4.17301 5.93347 3.68109 5.53993 3.28756C4.82782 2.57545 3.78308 2.30841 2.81799 2.5895C2.48067 2.68789 2.21832 2.95024 2.11993 3.28756C1.83884 4.25265 2.10588 5.29739 2.81799 6.0095C3.02412 6.21564 3.25369 6.3843 3.50667 6.51079C3.30053 6.68413 3.0944 6.86685 2.89763 7.05424C2.67744 6.89964 2.4713 6.73098 2.2839 6.5389C1.12673 5.38641 0.691028 3.69046 1.15015 2.11633ZM2.2839 14.7844C3.66596 12.9901 5.49777 11.6221 7.61067 10.8116C8.24782 10.5679 8.93651 10.6523 9.50339 11.0364C10.0703 11.43 10.3982 12.0484 10.3982 12.7371V16.0962C9.76106 16.3585 9.14733 16.7755 8.57577 17.3377C8.57108 17.3424 8.57108 17.3424 8.5664 17.347C8.51955 17.3892 8.47739 17.4361 8.43054 17.4829C8.42585 17.4876 8.42585 17.4876 8.42117 17.4923C8.29936 17.6188 8.17755 17.7546 8.06043 17.8952C8.037 17.9186 8.01826 17.9467 7.99484 17.9701C7.96673 18.0029 7.93862 18.0357 7.91519 18.0685C7.88708 18.1013 7.86366 18.1341 7.83555 18.1669C7.81212 18.195 7.7887 18.2278 7.76528 18.2559C7.72311 18.3121 7.68095 18.3684 7.63878 18.4293C7.62473 18.448 7.61067 18.4667 7.59662 18.4902C7.55445 18.5464 7.51697 18.6073 7.47481 18.6635C7.47012 18.6729 7.46544 18.6776 7.46075 18.6869C5.68048 17.9795 4.08292 16.8598 2.80393 15.4122C2.63059 15.2107 2.45256 14.9999 2.2839 14.7844ZM13.5605 16.0962V12.7371C13.5605 12.0484 13.8885 11.4253 14.4554 11.0364C15.0176 10.6476 15.7109 10.5633 16.3481 10.8116C18.4563 11.6174 20.2928 12.9901 21.6748 14.7844C21.5062 15.0046 21.3328 15.2154 21.1501 15.4215C19.8711 16.8692 18.2736 17.9889 16.4933 18.6963C16.4886 18.6869 16.4839 18.6822 16.4792 18.6729C16.4418 18.612 16.3996 18.5558 16.3574 18.4995C16.3434 18.4808 16.3293 18.4574 16.3153 18.4386C16.2731 18.3824 16.2309 18.3215 16.1888 18.2653C16.1654 18.2372 16.1419 18.2044 16.1185 18.1763C16.0904 18.1435 16.067 18.1107 16.0389 18.0779C16.0108 18.0451 15.9826 18.0123 15.9592 17.9748C15.9405 17.9514 15.9171 17.9233 15.8936 17.8999C15.7765 17.7593 15.6547 17.6235 15.5329 17.497C15.5282 17.4923 15.5282 17.4923 15.5235 17.4876C15.4814 17.4407 15.4345 17.3986 15.3877 17.3517C15.383 17.347 15.383 17.347 15.3783 17.3424C14.8114 16.7802 14.1977 16.3585 13.5605 16.0962ZM15.5751 19.0149C14.7692 19.2632 13.9306 19.4318 13.078 19.5068L13.3966 19.1367C13.8135 18.6495 13.4762 17.8952 12.8344 17.8858L11.1525 17.8577C10.4966 17.8483 10.1405 18.6167 10.5669 19.1133L10.9089 19.5068C10.0468 19.4318 9.19886 19.2632 8.38369 19.0149C9.4378 17.5298 10.7027 16.7193 11.9817 16.7193C13.2607 16.7193 14.5209 17.5298 15.5751 19.0149ZM22.6962 13.2149C22.5509 13.4773 22.3963 13.735 22.237 13.9833C20.7753 12.1608 18.8639 10.7694 16.6807 9.93548C15.7625 9.58411 14.7318 9.70592 13.9213 10.2634C13.1061 10.8256 12.6189 11.7485 12.6189 12.7371V15.8291C12.4034 15.7963 12.1925 15.7776 11.977 15.7776C11.7615 15.7776 11.546 15.7963 11.3352 15.8291V12.7371C11.3352 11.7485 10.848 10.8256 10.0328 10.2634C9.22229 9.70592 8.1916 9.58411 7.27336 9.93548C5.09018 10.7694 3.18341 12.1655 1.71703 13.9833C1.55305 13.735 1.40314 13.4773 1.2579 13.2149C0.822206 12.4279 0.822206 11.4862 1.2579 10.6991C1.81541 9.69186 2.49941 8.7783 3.28648 7.98186C3.28648 7.98186 3.28648 7.98186 3.29116 7.97717C3.51604 7.74761 3.75029 7.53211 3.9939 7.32128C4.00327 7.31191 4.01264 7.30723 4.01733 7.30255C4.06418 7.26038 4.11103 7.2229 4.15788 7.18074C4.17662 7.16668 4.19536 7.14794 4.2141 7.13389C4.24689 7.10578 4.28437 7.07767 4.31716 7.04956C4.34527 7.02613 4.37338 7.00271 4.40149 6.97928C4.41555 6.96523 4.43429 6.95586 4.44834 6.94181C6.56125 5.29271 9.19886 4.35572 11.9677 4.35572C16.4277 4.35572 20.5317 6.7872 22.6868 10.6944C23.1319 11.4862 23.1319 12.4279 22.6962 13.2149Z" fill="white"/>
<path d="M8.61324 13.182C8.95219 13.182 9.22696 12.9073 9.22696 12.5683C9.22696 12.2294 8.95219 11.9546 8.61324 11.9546C8.27429 11.9546 7.99951 12.2294 7.99951 12.5683C7.99951 12.9073 8.27429 13.182 8.61324 13.182Z" fill="white"/>
<path d="M15.3457 13.182C15.6846 13.182 15.9594 12.9073 15.9594 12.5683C15.9594 12.2294 15.6846 11.9546 15.3457 11.9546C15.0067 11.9546 14.7319 12.2294 14.7319 12.5683C14.7319 12.9073 15.0067 13.182 15.3457 13.182Z" fill="white"/>
</svg>
