<svg width="20" height="21" viewBox="0 0 20 21" fill="none" xmlns="http://www.w3.org/2000/svg">
<g clip-path="url(#clip0_109_1469)">
<path d="M13.4609 11.5775C12.6821 11.5775 11.9838 11.9226 11.5057 12.4658L10.2805 11.5984C10.4105 11.2403 10.4852 10.8558 10.4852 10.4534C10.4852 10.0579 10.4131 9.67983 10.2874 9.32703L11.5098 8.46885C11.9879 9.00936 12.6843 9.35253 13.4609 9.35253C14.8984 9.35253 16.0681 8.18303 16.0681 6.74531C16.0681 5.3076 14.8984 4.1381 13.4609 4.1381C12.0234 4.1381 10.8537 5.3076 10.8537 6.74531C10.8537 7.00265 10.8926 7.25079 10.9624 7.4858L9.73906 8.34442C9.22805 7.71046 8.49229 7.26783 7.65398 7.13271V5.65838C8.83498 5.41033 9.72482 4.36103 9.72482 3.10722C9.72482 1.6695 8.55513 0.5 7.11761 0.5C5.6801 0.5 4.5104 1.6695 4.5104 3.10722C4.5104 4.34423 5.3772 5.3806 6.53457 5.64635V7.13983C4.95506 7.41709 3.75 8.79557 3.75 10.4534C3.75 12.1193 4.96699 13.5028 6.55791 13.7706V15.3476C5.3887 15.6046 4.5104 16.6473 4.5104 17.8928C4.5104 19.3305 5.6801 20.5 7.11761 20.5C8.55513 20.5 9.72482 19.3305 9.72482 17.8928C9.72482 16.6473 8.84653 15.6046 7.67732 15.3476V13.7706C8.49912 13.6322 9.22136 13.1983 9.72713 12.5784L10.9605 13.4514C10.8921 13.6843 10.8537 13.93 10.8537 14.1847C10.8537 15.6224 12.0234 16.7919 13.4609 16.7919C14.8984 16.7919 16.0681 15.6224 16.0681 14.1847C16.0681 12.747 14.8984 11.5775 13.4609 11.5775ZM13.4609 5.48121C14.158 5.48121 14.725 6.04842 14.725 6.74531C14.725 7.4422 14.158 8.00937 13.4609 8.00937C12.7638 8.00937 12.1969 7.4422 12.1969 6.74531C12.1969 6.04842 12.7638 5.48121 13.4609 5.48121ZM5.85351 3.10722C5.85351 2.41033 6.42053 1.84316 7.11761 1.84316C7.81469 1.84316 8.38166 2.41033 8.38166 3.10722C8.38166 3.80411 7.81469 4.37127 7.11761 4.37127C6.42053 4.37127 5.85351 3.80411 5.85351 3.10722ZM8.38166 17.8928C8.38166 18.5897 7.81469 19.1568 7.11761 19.1568C6.42053 19.1568 5.85351 18.5897 5.85351 17.8928C5.85351 17.1959 6.42053 16.6287 7.11761 16.6287C7.81469 16.6287 8.38166 17.1959 8.38166 17.8928ZM7.11752 12.2163C6.1453 12.2163 5.35439 11.4255 5.35439 10.4534C5.35439 9.48115 6.1453 8.69024 7.11752 8.69024C8.08969 8.69024 8.8806 9.48115 8.8806 10.4534C8.8806 11.4255 8.08969 12.2163 7.11752 12.2163ZM13.4609 15.4488C12.7638 15.4488 12.1969 14.8816 12.1969 14.1847C12.1969 13.4878 12.7638 12.9207 13.4609 12.9207C14.158 12.9207 14.725 13.4878 14.725 14.1847C14.725 14.8816 14.158 15.4488 13.4609 15.4488Z" fill="white"/>
</g>
<defs>
<clipPath id="clip0_109_1469">
<rect width="20" height="20" fill="white" transform="translate(0 0.5)"/>
</clipPath>
</defs>
</svg>
