<svg width="20" height="21" viewBox="0 0 20 21" fill="none" xmlns="http://www.w3.org/2000/svg">
<g clip-path="url(#clip0_109_1676)">
<path d="M12.0449 2.13228C10.6607 2.36282 9.49843 2.9309 8.62874 3.80032C7.59933 4.82973 7.07598 6.06305 6.89842 7.89107C6.81856 8.72509 6.7741 12.0084 6.84518 12.0084C6.86301 12.0084 7.03152 11.9462 7.21786 11.8663C7.65257 11.6799 8.59334 11.6799 9.08129 11.8575L9.45397 11.9906L9.49843 9.85219C9.54262 7.57163 9.59586 7.22556 10.0218 6.37371C10.3146 5.8059 11.0246 5.14039 11.6281 4.86513C12.3202 4.54569 13.3318 4.42164 14.1125 4.54569C15.7808 4.82094 16.7746 5.72603 17.1917 7.34083C17.3602 7.98877 17.369 8.32578 17.369 11.8929V15.7353H20.0489L20.0044 11.5381C19.9778 7.57162 19.9602 7.30542 19.7739 6.59546C19.2681 4.62555 18.0436 3.1971 16.3308 2.54916C15.4169 2.20309 14.5473 2.06999 13.3493 2.07904C12.7549 2.08783 12.1693 2.11445 12.0449 2.13228Z" fill="white"/>
<path d="M1.23673 8.68975C0.473786 9.07122 0.0654297 9.75456 0.0654297 10.6775C0.0654297 10.9703 0.11867 11.343 0.189747 11.5115C0.358254 11.9286 0.83742 12.4344 1.25456 12.6562C1.76035 12.9224 2.71868 12.9224 3.21568 12.665L3.57932 12.4786L4.71521 13.2506L5.8511 14.0317V15.2117L4.71521 15.9925L3.57053 16.7736L3.27771 16.596C2.85178 16.3476 2.02655 16.2944 1.52077 16.4895C0.988358 16.6937 0.438115 17.1816 0.234203 17.643C0.0121887 18.1134 0.0121887 19.0363 0.234203 19.5064C0.420545 19.9235 0.855256 20.3849 1.24578 20.5891C1.4055 20.6689 1.78697 20.7488 2.10641 20.7754C2.85178 20.8286 3.48189 20.5803 3.93443 20.0479C4.29807 19.6219 4.53765 18.8766 4.47563 18.3617L4.43117 17.9981L5.57585 17.2261L6.72052 16.4541L7.12888 16.6405C7.74993 16.9067 8.67286 16.8444 9.25851 16.4895C9.8974 16.0902 10.2168 15.5224 10.2522 14.7238C10.2789 14.1648 10.2522 14.0404 10.0305 13.6057C9.45364 12.5052 8.16707 12.0884 7.06659 12.6383L6.73836 12.7981L5.61152 12.0261L4.48441 11.2541L4.45779 10.633C4.44022 9.88766 4.22726 9.4085 3.70364 8.97379C3.03813 8.40571 2.04439 8.29044 1.23673 8.68975Z" fill="white"/>
</g>
<defs>
<clipPath id="clip0_109_1676">
<rect width="20" height="20" fill="white" transform="translate(0 0.5)"/>
</clipPath>
</defs>
</svg>
