<svg width="18" height="19" viewBox="0 0 18 19" fill="none" xmlns="http://www.w3.org/2000/svg">
<path d="M6.75 2.75H3C2.58579 2.75 2.25 3.08579 2.25 3.5V8.75C2.25 9.16421 2.58579 9.5 3 9.5H6.75C7.16421 9.5 7.5 9.16421 7.5 8.75V3.5C7.5 3.08579 7.16421 2.75 6.75 2.75Z" stroke="white" stroke-width="2" stroke-linecap="round" stroke-linejoin="round"/>
<path d="M15 2.75H11.25C10.8358 2.75 10.5 3.08579 10.5 3.5V5.75C10.5 6.16421 10.8358 6.5 11.25 6.5H15C15.4142 6.5 15.75 6.16421 15.75 5.75V3.5C15.75 3.08579 15.4142 2.75 15 2.75Z" stroke="white" stroke-width="2" stroke-linecap="round" stroke-linejoin="round"/>
<path d="M15 9.5H11.25C10.8358 9.5 10.5 9.83579 10.5 10.25V15.5C10.5 15.9142 10.8358 16.25 11.25 16.25H15C15.4142 16.25 15.75 15.9142 15.75 15.5V10.25C15.75 9.83579 15.4142 9.5 15 9.5Z" stroke="white" stroke-width="2" stroke-linecap="round" stroke-linejoin="round"/>
<path d="M6.75 12.5H3C2.58579 12.5 2.25 12.8358 2.25 13.25V15.5C2.25 15.9142 2.58579 16.25 3 16.25H6.75C7.16421 16.25 7.5 15.9142 7.5 15.5V13.25C7.5 12.8358 7.16421 12.5 6.75 12.5Z" stroke="white" stroke-width="2" stroke-linecap="round" stroke-linejoin="round"/>
</svg>
